<svg width="206" height="219" viewBox="0 0 206 219" fill="none" xmlns="http://www.w3.org/2000/svg">
<path d="M6 23H2V209H6V23Z" fill="#34A2D5" stroke="#12374B" stroke-width="0.5"/>
<path d="M6 23H2V209H6V23Z" fill="#D58134" stroke="#5B1C13" stroke-width="0.5"/>
<path d="M156 34L156 31L49 31L49 34L156 34Z" fill="#D58134" stroke="#5B1C13" stroke-width="0.5"/>
<path d="M41 26L44 26L44 10L41 10L41 26Z" fill="#D58134" stroke="#5B1C13" stroke-width="0.5"/>
<path d="M10 15L10 19L41 19L41 15L10 15Z" fill="#D58134" stroke="#5B1C13" stroke-width="0.5"/>
<path d="M164 15L164 19L196 19L196 15L164 15Z" fill="#D58134" stroke="#5B1C13" stroke-width="0.5"/>
<path d="M161 26L164 26L164 10L161 10L161 26Z" fill="#D58134" stroke="#5B1C13" stroke-width="0.5"/>
<path d="M156 5L156 2L49 2L49 5L156 5Z" fill="#D58134" stroke="#5B1C13" stroke-width="0.5"/>
<path d="M200 23H204V209H200V23Z" fill="#D58134" stroke="#5B1C13" stroke-width="0.5"/>
<path d="M196 217L196 213L10 213L10 217L196 217Z" fill="#D58134" stroke="#5B1C13" stroke-width="0.5"/>
<path d="M71 22C71.0667 22.2667 71.1 22.6 71.1 23C71.1 23.3833 71.0667 23.7167 71 24H70C70.0667 24.2667 70.1 24.6 70.1 25C70.1 25.3833 70.0667 25.7167 70 26H65C64.9333 25.7167 64.9 25.3833 64.9 25C64.9 24.6 64.9333 24.2667 65 24H64C63.9333 23.7167 63.9 23.3833 63.9 23C63.9 22.6 63.9333 22.2667 64 22H63C62.9333 21.7167 62.9 21.3833 62.9 21C62.9 20.6 62.9333 20.2667 63 20C62.9333 19.7167 62.9 19.3833 62.9 19C62.9 18.6 62.9333 18.2667 63 18C62.9333 17.7167 62.9 17.3833 62.9 17C62.9 16.6 62.9333 16.2667 63 16H64C63.9333 15.7167 63.9 15.3833 63.9 15C63.9 14.6 63.9333 14.2667 64 14H65C64.9333 13.7167 64.9 13.3833 64.9 13C64.9 12.6 64.9333 12.2667 65 12H70C70.0667 12.2667 70.1 12.6 70.1 13C70.1 13.3833 70.0667 13.7167 70 14H71C71.0667 14.2667 71.1 14.6 71.1 15C71.1 15.3833 71.0667 15.7167 71 16H69C68.9333 15.7167 68.9 15.3833 68.9 15C68.9 14.6 68.9333 14.2667 69 14H66C66.0667 14.2667 66.1 14.6 66.1 15C66.1 15.3833 66.0667 15.7167 66 16H65C65.0667 16.2667 65.1 16.6 65.1 17C65.1 17.3833 65.0667 17.7167 65 18C65.0667 18.2667 65.1 18.6 65.1 19C65.1 19.3833 65.0667 19.7167 65 20C65.0667 20.2667 65.1 20.6 65.1 21C65.1 21.3833 65.0667 21.7167 65 22H66C66.0667 22.2667 66.1 22.6 66.1 23C66.1 23.3833 66.0667 23.7167 66 24H69C68.9333 23.7167 68.9 23.3833 68.9 23C68.9 22.6 68.9333 22.2667 69 22H71ZM81.1098 21C81.1098 21.3833 81.0764 21.7167 81.0098 22H80.2598C80.3264 22.2667 80.3598 22.6 80.3598 23C80.3598 23.3833 80.3264 23.7167 80.2598 24H79.0098C79.0764 24.2667 79.1098 24.6 79.1098 25C79.1098 25.3833 79.0764 25.7167 79.0098 26H75.0098C74.9431 25.7167 74.9098 25.3833 74.9098 25C74.9098 24.6 74.9431 24.2667 75.0098 24H73.7598C73.6931 23.7167 73.6598 23.3833 73.6598 23C73.6598 22.6 73.6931 22.2667 73.7598 22H73.0098C72.9431 21.7167 72.9098 21.3833 72.9098 21C72.9098 20.6 72.9431 20.2667 73.0098 20H73.7598C73.6931 19.7167 73.6598 19.3833 73.6598 19C73.6598 18.6 73.6931 18.2667 73.7598 18H75.0098C74.9431 17.7167 74.9098 17.3833 74.9098 17C74.9098 16.6 74.9431 16.2667 75.0098 16H79.0098C79.0764 16.2667 79.1098 16.6 79.1098 17C79.1098 17.3833 79.0764 17.7167 79.0098 18H80.2598C80.3264 18.2667 80.3598 18.6 80.3598 19C80.3598 19.3833 80.3264 19.7167 80.2598 20H81.0098C81.0764 20.2667 81.1098 20.6 81.1098 21ZM79.0098 22C78.9431 21.7167 78.9098 21.3833 78.9098 21C78.9098 20.6 78.9431 20.2667 79.0098 20H78.2598C78.1931 19.7167 78.1598 19.3833 78.1598 19C78.1598 18.6 78.1931 18.2667 78.2598 18H75.7598C75.8264 18.2667 75.8598 18.6 75.8598 19C75.8598 19.3833 75.8264 19.7167 75.7598 20H75.0098C75.0764 20.2667 75.1098 20.6 75.1098 21C75.1098 21.3833 75.0764 21.7167 75.0098 22H75.7598C75.8264 22.2667 75.8598 22.6 75.8598 23C75.8598 23.3833 75.8264 23.7167 75.7598 24H78.2598C78.1931 23.7167 78.1598 23.3833 78.1598 23C78.1598 22.6 78.1931 22.2667 78.2598 22H79.0098ZM84.8695 17C84.8695 17.3833 84.8362 17.7167 84.7695 18H85.7695C85.8362 18.2667 85.8695 18.6 85.8695 19C85.8695 19.3833 85.8362 19.7167 85.7695 20H85.0195C85.0862 20.2667 85.1195 20.6 85.1195 21C85.1195 21.3833 85.0862 21.7167 85.0195 22C85.0862 22.2667 85.1195 22.6 85.1195 23C85.1195 23.3833 85.0862 23.7167 85.0195 24C85.0862 24.2667 85.1195 24.6 85.1195 25C85.1195 25.3833 85.0862 25.7167 85.0195 26H83.0195C82.9529 25.7167 82.9195 25.3833 82.9195 25C82.9195 24.6 82.9529 24.2667 83.0195 24C82.9529 23.7167 82.9195 23.3833 82.9195 23C82.9195 22.6 82.9529 22.2667 83.0195 22C82.9529 21.7167 82.9195 21.3833 82.9195 21C82.9195 20.6 82.9529 20.2667 83.0195 20C82.9529 19.7167 82.9195 19.3833 82.9195 19C82.9195 18.6 82.9529 18.2667 83.0195 18C82.9529 17.7167 82.9195 17.3833 82.9195 17C82.9195 16.6 82.9529 16.2667 83.0195 16H84.7695C84.8362 16.2667 84.8695 16.6 84.8695 17ZM91.0195 20C91.0862 20.2667 91.1195 20.6 91.1195 21C91.1195 21.3833 91.0862 21.7167 91.0195 22C91.0862 22.2667 91.1195 22.6 91.1195 23C91.1195 23.3833 91.0862 23.7167 91.0195 24C91.0862 24.2667 91.1195 24.6 91.1195 25C91.1195 25.3833 91.0862 25.7167 91.0195 26H89.0195C88.9529 25.7167 88.9195 25.3833 88.9195 25C88.9195 24.6 88.9529 24.2667 89.0195 24C88.9529 23.7167 88.9195 23.3833 88.9195 23C88.9195 22.6 88.9529 22.2667 89.0195 22C88.9529 21.7167 88.9195 21.3833 88.9195 21C88.9195 20.6 88.9529 20.2667 89.0195 20C88.9529 19.7167 88.9195 19.3833 88.9195 19C88.9195 18.6 88.9529 18.2667 89.0195 18H85.7695C85.7029 17.7167 85.6695 17.3833 85.6695 17C85.6695 16.6 85.7029 16.2667 85.7695 16H89.7695C89.8362 16.2667 89.8695 16.6 89.8695 17C89.8695 17.3833 89.8362 17.7167 89.7695 18H91.0195C91.0862 18.2667 91.1195 18.6 91.1195 19C91.1195 19.3833 91.0862 19.7167 91.0195 20ZM100.029 24C100.096 24.2667 100.129 24.6 100.129 25C100.129 25.3833 100.096 25.7167 100.029 26H96.0293C95.9626 25.7167 95.9293 25.3833 95.9293 25C95.9293 24.6 95.9626 24.2667 96.0293 24H95.0293C94.9626 23.7167 94.9293 23.3833 94.9293 23C94.9293 22.6 94.9626 22.2667 95.0293 22C94.9626 21.7167 94.9293 21.3833 94.9293 21C94.9293 20.6 94.9626 20.2667 95.0293 20C94.9626 19.7167 94.9293 19.3833 94.9293 19C94.9293 18.6 94.9626 18.2667 95.0293 18H93.0293C92.9626 17.7167 92.9293 17.3833 92.9293 17C92.9293 16.6 92.9626 16.2667 93.0293 16H95.0293C94.9626 15.7167 94.9293 15.3833 94.9293 15C94.9293 14.6 94.9626 14.2667 95.0293 14C94.9626 13.7167 94.9293 13.3833 94.9293 13C94.9293 12.6 94.9626 12.2667 95.0293 12H97.0293C97.096 12.2667 97.1293 12.6 97.1293 13C97.1293 13.3833 97.096 13.7167 97.0293 14C97.096 14.2667 97.1293 14.6 97.1293 15C97.1293 15.3833 97.096 15.7167 97.0293 16H100.029C100.096 16.2667 100.129 16.6 100.129 17C100.129 17.3833 100.096 17.7167 100.029 18H97.0293C97.096 18.2667 97.1293 18.6 97.1293 19C97.1293 19.3833 97.096 19.7167 97.0293 20C97.096 20.2667 97.1293 20.6 97.1293 21C97.1293 21.3833 97.096 21.7167 97.0293 22C97.096 22.2667 97.1293 22.6 97.1293 23C97.1293 23.3833 97.096 23.7167 97.0293 24H100.029ZM111.039 18C111.106 18.2667 111.139 18.6 111.139 19C111.139 19.3833 111.106 19.7167 111.039 20H109.039C108.972 19.7167 108.939 19.3833 108.939 19C108.939 18.6 108.972 18.2667 109.039 18H107.289C107.356 18.2667 107.389 18.6 107.389 19C107.389 19.3833 107.356 19.7167 107.289 20H106.539C106.606 20.2667 106.639 20.6 106.639 21C106.639 21.3833 106.606 21.7167 106.539 22C106.606 22.2667 106.639 22.6 106.639 23C106.639 23.3833 106.606 23.7167 106.539 24H108.039C108.106 24.2667 108.139 24.6 108.139 25C108.139 25.3833 108.106 25.7167 108.039 26H103.039C102.972 25.7167 102.939 25.3833 102.939 25C102.939 24.6 102.972 24.2667 103.039 24H104.539C104.472 23.7167 104.439 23.3833 104.439 23C104.439 22.6 104.472 22.2667 104.539 22C104.472 21.7167 104.439 21.3833 104.439 21C104.439 20.6 104.472 20.2667 104.539 20C104.472 19.7167 104.439 19.3833 104.439 19C104.439 18.6 104.472 18.2667 104.539 18H103.039C102.972 17.7167 102.939 17.3833 102.939 17C102.939 16.6 102.972 16.2667 103.039 16H105.539C105.606 16.2667 105.639 16.6 105.639 17C105.639 17.3833 105.606 17.7167 105.539 18H106.539C106.472 17.7167 106.439 17.3833 106.439 17C106.439 16.6 106.472 16.2667 106.539 16H110.289C110.356 16.2667 110.389 16.6 110.389 17C110.389 17.3833 110.356 17.7167 110.289 18H111.039ZM121.149 21C121.149 21.3833 121.115 21.7167 121.049 22H120.299C120.365 22.2667 120.399 22.6 120.399 23C120.399 23.3833 120.365 23.7167 120.299 24H119.049C119.115 24.2667 119.149 24.6 119.149 25C119.149 25.3833 119.115 25.7167 119.049 26H115.049C114.982 25.7167 114.949 25.3833 114.949 25C114.949 24.6 114.982 24.2667 115.049 24H113.799C113.732 23.7167 113.699 23.3833 113.699 23C113.699 22.6 113.732 22.2667 113.799 22H113.049C112.982 21.7167 112.949 21.3833 112.949 21C112.949 20.6 112.982 20.2667 113.049 20H113.799C113.732 19.7167 113.699 19.3833 113.699 19C113.699 18.6 113.732 18.2667 113.799 18H115.049C114.982 17.7167 114.949 17.3833 114.949 17C114.949 16.6 114.982 16.2667 115.049 16H119.049C119.115 16.2667 119.149 16.6 119.149 17C119.149 17.3833 119.115 17.7167 119.049 18H120.299C120.365 18.2667 120.399 18.6 120.399 19C120.399 19.3833 120.365 19.7167 120.299 20H121.049C121.115 20.2667 121.149 20.6 121.149 21ZM119.049 22C118.982 21.7167 118.949 21.3833 118.949 21C118.949 20.6 118.982 20.2667 119.049 20H118.299C118.232 19.7167 118.199 19.3833 118.199 19C118.199 18.6 118.232 18.2667 118.299 18H115.799C115.865 18.2667 115.899 18.6 115.899 19C115.899 19.3833 115.865 19.7167 115.799 20H115.049C115.115 20.2667 115.149 20.6 115.149 21C115.149 21.3833 115.115 21.7167 115.049 22H115.799C115.865 22.2667 115.899 22.6 115.899 23C115.899 23.3833 115.865 23.7167 115.799 24H118.299C118.232 23.7167 118.199 23.3833 118.199 23C118.199 22.6 118.232 22.2667 118.299 22H119.049ZM130.059 24C130.125 24.2667 130.159 24.6 130.159 25C130.159 25.3833 130.125 25.7167 130.059 26H124.059C123.992 25.7167 123.959 25.3833 123.959 25C123.959 24.6 123.992 24.2667 124.059 24H126.059C125.992 23.7167 125.959 23.3833 125.959 23C125.959 22.6 125.992 22.2667 126.059 22C125.992 21.7167 125.959 21.3833 125.959 21C125.959 20.6 125.992 20.2667 126.059 20C125.992 19.7167 125.959 19.3833 125.959 19C125.959 18.6 125.992 18.2667 126.059 18C125.992 17.7167 125.959 17.3833 125.959 17C125.959 16.6 125.992 16.2667 126.059 16C125.992 15.7167 125.959 15.3833 125.959 15C125.959 14.6 125.992 14.2667 126.059 14H124.559C124.492 13.7167 124.459 13.3833 124.459 13C124.459 12.6 124.492 12.2667 124.559 12H128.059C128.125 12.2667 128.159 12.6 128.159 13C128.159 13.3833 128.125 13.7167 128.059 14C128.125 14.2667 128.159 14.6 128.159 15C128.159 15.3833 128.125 15.7167 128.059 16C128.125 16.2667 128.159 16.6 128.159 17C128.159 17.3833 128.125 17.7167 128.059 18C128.125 18.2667 128.159 18.6 128.159 19C128.159 19.3833 128.125 19.7167 128.059 20C128.125 20.2667 128.159 20.6 128.159 21C128.159 21.3833 128.125 21.7167 128.059 22C128.125 22.2667 128.159 22.6 128.159 23C128.159 23.3833 128.125 23.7167 128.059 24H130.059ZM140.668 23C140.668 23.3833 140.635 23.7167 140.568 24H139.568C139.635 24.2667 139.668 24.6 139.668 25C139.668 25.3833 139.635 25.7167 139.568 26H134.068C134.002 25.7167 133.968 25.3833 133.968 25C133.968 24.6 134.002 24.2667 134.068 24H138.568C138.502 23.7167 138.468 23.3833 138.468 23C138.468 22.6 138.502 22.2667 138.568 22H134.568C134.502 21.7167 134.468 21.3833 134.468 21C134.468 20.6 134.502 20.2667 134.568 20H133.568C133.502 19.7167 133.468 19.3833 133.468 19C133.468 18.6 133.502 18.2667 133.568 18H134.568C134.502 17.7167 134.468 17.3833 134.468 17C134.468 16.6 134.502 16.2667 134.568 16H140.068C140.135 16.2667 140.168 16.6 140.168 17C140.168 17.3833 140.135 17.7167 140.068 18H135.568C135.635 18.2667 135.668 18.6 135.668 19C135.668 19.3833 135.635 19.7167 135.568 20H139.568C139.635 20.2667 139.668 20.6 139.668 21C139.668 21.3833 139.635 21.7167 139.568 22H140.568C140.635 22.2667 140.668 22.6 140.668 23Z" fill="url(#paint0_linear_7_176)"/>
<path d="M1 23V14H10V20H7V23H1Z" fill="url(#paint1_linear_7_176)" stroke="#5B2913" stroke-width="0.5"/>
<path d="M4 17V15.5H7V17H4Z" fill="#FDDECC"/>
<path d="M4 18.5H2.5V21.5H4V18.5Z" fill="#FF7F56" fill-opacity="0.45"/>
<path d="M40 10V1H49V7H46V10H40Z" fill="url(#paint2_linear_7_176)" stroke="#5B2913" stroke-width="0.5"/>
<path d="M43 4V2.5H46V4H43Z" fill="#FDDECC"/>
<path d="M43 5.5H41.5V8.5H43V5.5Z" fill="#FF7F56" fill-opacity="0.45"/>
<path d="M165 10V1H156V7H159V10H165Z" fill="url(#paint3_linear_7_176)" stroke="#5B2913" stroke-width="0.5"/>
<path d="M162 4V2.5H159V4H162Z" fill="#FDDECC"/>
<path d="M162 5.5H163.5V8.5H162V5.5Z" fill="#FF7F56" fill-opacity="0.45"/>
<path d="M205 23V14H196V20H199V23H205Z" fill="url(#paint4_linear_7_176)" stroke="#5B2913" stroke-width="0.5"/>
<path d="M202 17V15.5H199V17H202Z" fill="#FDDECC"/>
<path d="M202 18.5H203.5V21.5H202V18.5Z" fill="#FF7F56" fill-opacity="0.45"/>
<path d="M10 218L1 218L1 209L7 209L7 212L10 212L10 218Z" fill="url(#paint5_linear_7_176)" stroke="#5B2913" stroke-width="0.5"/>
<path d="M4 215L2.5 215L2.5 212L4 212L4 215Z" fill="#FDDECC"/>
<path d="M5.5 215L5.5 216.5L8.5 216.5L8.5 215L5.5 215Z" fill="#FF7F56" fill-opacity="0.45"/>
<path d="M49 35L40 35L40 26L46 26L46 29L49 29L49 35Z" fill="url(#paint6_linear_7_176)" stroke="#5B2913" stroke-width="0.5"/>
<path d="M43 32.0001L41.5 32.0001L41.5 29.0001L43 29.0001L43 32.0001Z" fill="#FDDECC"/>
<path d="M44.5 31.9999L44.5 33.4999L47.5 33.4999L47.5 31.9999L44.5 31.9999Z" fill="#FF7F56" fill-opacity="0.45"/>
<path d="M156 35L165 35L165 26L159 26L159 29L156 29L156 35Z" fill="url(#paint7_linear_7_176)" stroke="#5B2913" stroke-width="0.5"/>
<path d="M162 32.0001L163.5 32.0001L163.5 29.0001L162 29.0001L162 32.0001Z" fill="#FDDECC"/>
<path d="M160.5 31.9999L160.5 33.4999L157.5 33.4999L157.5 31.9999L160.5 31.9999Z" fill="#FF7F56" fill-opacity="0.45"/>
<path d="M196 218L205 218L205 209L199 209L199 212L196 212L196 218Z" fill="url(#paint8_linear_7_176)" stroke="#5B2913" stroke-width="0.5"/>
<path d="M202 215L203.5 215L203.5 212L202 212L202 215Z" fill="#FDDECC"/>
<path d="M200.5 215L200.5 216.5L197.5 216.5L197.5 215L200.5 215Z" fill="#FF7F56" fill-opacity="0.45"/>
<defs>
<linearGradient id="paint0_linear_7_176" x1="102.5" y1="6" x2="102.5" y2="31" gradientUnits="userSpaceOnUse">
<stop stop-color="white"/>
<stop offset="1" stop-color="white" stop-opacity="0.41"/>
</linearGradient>
<linearGradient id="paint1_linear_7_176" x1="1.5" y1="22.5" x2="9" y2="14.5" gradientUnits="userSpaceOnUse">
<stop stop-color="#FFA285"/>
<stop offset="1" stop-color="#FFC785" stop-opacity="0.53"/>
</linearGradient>
<linearGradient id="paint2_linear_7_176" x1="40.5" y1="9.5" x2="48" y2="1.5" gradientUnits="userSpaceOnUse">
<stop stop-color="#FFA285"/>
<stop offset="1" stop-color="#FFC785" stop-opacity="0.53"/>
</linearGradient>
<linearGradient id="paint3_linear_7_176" x1="164.5" y1="9.5" x2="157" y2="1.5" gradientUnits="userSpaceOnUse">
<stop stop-color="#FFA285"/>
<stop offset="1" stop-color="#FFC785" stop-opacity="0.53"/>
</linearGradient>
<linearGradient id="paint4_linear_7_176" x1="204.5" y1="22.5" x2="197" y2="14.5" gradientUnits="userSpaceOnUse">
<stop stop-color="#FFA285"/>
<stop offset="1" stop-color="#FFC785" stop-opacity="0.53"/>
</linearGradient>
<linearGradient id="paint5_linear_7_176" x1="2.5" y1="217.5" x2="10" y2="208.5" gradientUnits="userSpaceOnUse">
<stop stop-color="#FFA285"/>
<stop offset="1" stop-color="#FFC785" stop-opacity="0.53"/>
</linearGradient>
<linearGradient id="paint6_linear_7_176" x1="41.5" y1="34.5" x2="49" y2="25.5" gradientUnits="userSpaceOnUse">
<stop stop-color="#FFA285"/>
<stop offset="1" stop-color="#FFC785" stop-opacity="0.53"/>
</linearGradient>
<linearGradient id="paint7_linear_7_176" x1="163.5" y1="34.5" x2="156" y2="25.5" gradientUnits="userSpaceOnUse">
<stop stop-color="#FFA285"/>
<stop offset="1" stop-color="#FFC785" stop-opacity="0.53"/>
</linearGradient>
<linearGradient id="paint8_linear_7_176" x1="203.5" y1="217.5" x2="196" y2="208.5" gradientUnits="userSpaceOnUse">
<stop stop-color="#FFA285"/>
<stop offset="1" stop-color="#FFC785" stop-opacity="0.53"/>
</linearGradient>
</defs>
</svg>
