<svg width="206" height="220" viewBox="0 0 206 220" fill="none" xmlns="http://www.w3.org/2000/svg">
<path d="M1 24V15H10V21H7V24H1Z" fill="url(#paint0_linear_4_67)" stroke="#133A4E" stroke-width="0.5"/>
<path d="M4 18V16.5H7V18H4Z" fill="#A2EEFF"/>
<path d="M4 19.5H2.5V22.5H4V19.5Z" fill="#85E2FF"/>
<path d="M10 219L1 219L1 210L7 210L7 213L10 213L10 219Z" fill="url(#paint1_linear_4_67)" stroke="#133A4E" stroke-width="0.5"/>
<path d="M4 216L2.5 216L2.5 213L4 213L4 216Z" fill="#A2EEFF"/>
<path d="M5.5 216L5.5 217.5L8.5 217.5L8.5 216L5.5 216Z" fill="#85E2FF"/>
<path d="M6 24H2V210H6V24Z" fill="#34A2D5" stroke="#12374B" stroke-width="0.5"/>
<path d="M1 24V15H10V21H7V24H1Z" fill="url(#paint2_linear_4_67)" stroke="#133A4E" stroke-width="0.5"/>
<path d="M4 18V16.5H7V18H4Z" fill="#A2EEFF"/>
<path d="M4 19.5H2.5V22.5H4V19.5Z" fill="#85E2FF"/>
<path d="M40 11V2H49V8H46V11H40Z" fill="url(#paint3_linear_4_67)" stroke="#133A4E" stroke-width="0.5"/>
<path d="M43 5V3.5H46V5H43Z" fill="#A2EEFF"/>
<path d="M43 6.5H41.5V9.5H43V6.5Z" fill="#85E2FF"/>
<path d="M10 219L1 219L1 210L7 210L7 213L10 213L10 219Z" fill="url(#paint4_linear_4_67)" stroke="#133A4E" stroke-width="0.5"/>
<path d="M4 216L2.5 216L2.5 213L4 213L4 216Z" fill="#A2EEFF"/>
<path d="M5.5 216L5.5 217.5L8.5 217.5L8.5 216L5.5 216Z" fill="#85E2FF"/>
<path d="M49 36L40 36L40 27L46 27L46 30L49 30L49 36Z" fill="url(#paint5_linear_4_67)" stroke="#133A4E" stroke-width="0.5"/>
<path d="M43 33.0001L41.5 33.0001L41.5 30.0001L43 30.0001L43 33.0001Z" fill="#A2EEFF"/>
<path d="M44.5 32.9999L44.5 34.4999L47.5 34.4999L47.5 32.9999L44.5 32.9999Z" fill="#85E2FF"/>
<path d="M165 10V1H156V7H159V10H165Z" fill="url(#paint6_linear_4_67)" stroke="#133A4E" stroke-width="0.5"/>
<path d="M162 4V2.5H159V4H162Z" fill="#A2EEFF"/>
<path d="M162 5.5H163.5V8.5H162V5.5Z" fill="#85E2FF"/>
<path d="M156 36L165 36L165 27L159 27L159 30L156 30L156 36Z" fill="url(#paint7_linear_4_67)" stroke="#133A4E" stroke-width="0.5"/>
<path d="M162 33.0001L163.5 33.0001L163.5 30.0001L162 30.0001L162 33.0001Z" fill="#A2EEFF"/>
<path d="M160.5 32.9999L160.5 34.4999L157.5 34.4999L157.5 32.9999L160.5 32.9999Z" fill="#85E2FF"/>
<path d="M6 24H2V210H6V24Z" fill="#34A2D5" stroke="#12374B" stroke-width="0.5"/>
<path d="M156 35L156 32L49 32L49 35L156 35Z" fill="#34A2D5" stroke="#12374B" stroke-width="0.5"/>
<path d="M41 27L44 27L44 11L41 11L41 27Z" fill="#34A2D5" stroke="#12374B" stroke-width="0.5"/>
<path d="M10 16L10 20L41 20L41 16L10 16Z" fill="#34A2D5" stroke="#12374B" stroke-width="0.5"/>
<path d="M164 16L164 20L196 20L196 16L164 16Z" fill="#34A2D5" stroke="#12374B" stroke-width="0.5"/>
<path d="M161 27L164 27L164 10L161 10L161 27Z" fill="#34A2D5" stroke="#12374B" stroke-width="0.5"/>
<path d="M156 6L156 3L49 3L49 6L156 6Z" fill="#34A2D5" stroke="#12374B" stroke-width="0.5"/>
<path d="M205 24V15H196V21H199V24H205Z" fill="url(#paint8_linear_4_67)" stroke="#133A4E" stroke-width="0.5"/>
<path d="M202 18V16.5H199V18H202Z" fill="#A2EEFF"/>
<path d="M202 19.5H203.5V22.5H202V19.5Z" fill="#85E2FF"/>
<path d="M196 219L205 219L205 210L199 210L199 213L196 213L196 219Z" fill="url(#paint9_linear_4_67)" stroke="#133A4E" stroke-width="0.5"/>
<path d="M202 216L203.5 216L203.5 213L202 213L202 216Z" fill="#A2EEFF"/>
<path d="M200.5 216L200.5 217.5L197.5 217.5L197.5 216L200.5 216Z" fill="#85E2FF"/>
<path d="M200 24H204V210H200V24Z" fill="#34A2D5" stroke="#12374B" stroke-width="0.5"/>
<path d="M196 218L196 214L10 214L10 218L196 218Z" fill="#34A2D5" stroke="#12374B" stroke-width="0.5"/>
<path d="M56 23C56.0667 23.2667 56.1 23.6 56.1 24C56.1 24.3833 56.0667 24.7167 56 25H49C48.9333 24.7167 48.9 24.3833 48.9 24C48.9 23.6 48.9333 23.2667 49 23C48.9333 22.7167 48.9 22.3833 48.9 22C48.9 21.6 48.9333 21.2667 49 21C48.9333 20.7167 48.9 20.3833 48.9 20C48.9 19.6 48.9333 19.2667 49 19C48.9333 18.7167 48.9 18.3833 48.9 18C48.9 17.6 48.9333 17.2667 49 17C48.9333 16.7167 48.9 16.3833 48.9 16C48.9 15.6 48.9333 15.2667 49 15C48.9333 14.7167 48.9 14.3833 48.9 14C48.9 13.6 48.9333 13.2667 49 13C48.9333 12.7167 48.9 12.3833 48.9 12C48.9 11.6 48.9333 11.2667 49 11H51C51.0667 11.2667 51.1 11.6 51.1 12C51.1 12.3833 51.0667 12.7167 51 13C51.0667 13.2667 51.1 13.6 51.1 14C51.1 14.3833 51.0667 14.7167 51 15C51.0667 15.2667 51.1 15.6 51.1 16C51.1 16.3833 51.0667 16.7167 51 17C51.0667 17.2667 51.1 17.6 51.1 18C51.1 18.3833 51.0667 18.7167 51 19C51.0667 19.2667 51.1 19.6 51.1 20C51.1 20.3833 51.0667 20.7167 51 21C51.0667 21.2667 51.1 21.6 51.1 22C51.1 22.3833 51.0667 22.7167 51 23H56ZM66.1098 18C66.1098 18.3833 66.0764 18.7167 66.0098 19C66.0764 19.2667 66.1098 19.6 66.1098 20C66.1098 20.3833 66.0764 20.7167 66.0098 21H60.7598C60.8264 21.2667 60.8598 21.6 60.8598 22C60.8598 22.3833 60.8264 22.7167 60.7598 23H65.0098C65.0764 23.2667 65.1098 23.6 65.1098 24C65.1098 24.3833 65.0764 24.7167 65.0098 25H60.0098C59.9431 24.7167 59.9098 24.3833 59.9098 24C59.9098 23.6 59.9431 23.2667 60.0098 23H58.7598C58.6931 22.7167 58.6598 22.3833 58.6598 22C58.6598 21.6 58.6931 21.2667 58.7598 21H58.0098C57.9431 20.7167 57.9098 20.3833 57.9098 20C57.9098 19.6 57.9431 19.2667 58.0098 19H58.7598C58.6931 18.7167 58.6598 18.3833 58.6598 18C58.6598 17.6 58.6931 17.2667 58.7598 17H60.0098C59.9431 16.7167 59.9098 16.3833 59.9098 16C59.9098 15.6 59.9431 15.2667 60.0098 15H65.0098C65.0764 15.2667 65.1098 15.6 65.1098 16C65.1098 16.3833 65.0764 16.7167 65.0098 17H66.0098C66.0764 17.2667 66.1098 17.6 66.1098 18ZM64.0098 19C63.9431 18.7167 63.9098 18.3833 63.9098 18C63.9098 17.6 63.9431 17.2667 64.0098 17H60.7598C60.8264 17.2667 60.8598 17.6 60.8598 18C60.8598 18.3833 60.8264 18.7167 60.7598 19H64.0098ZM76.0195 23C76.0862 23.2667 76.1195 23.6 76.1195 24C76.1195 24.3833 76.0862 24.7167 76.0195 25H74.0195C73.9529 24.7167 73.9195 24.3833 73.9195 24C73.9195 23.6 73.9529 23.2667 74.0195 23H73.0195C72.9529 22.7167 72.9195 22.3833 72.9195 22C72.9195 21.6 72.9529 21.2667 73.0195 21H70.0195C70.0862 21.2667 70.1195 21.6 70.1195 22C70.1195 22.3833 70.0862 22.7167 70.0195 23H73.0195C73.0862 23.2667 73.1195 23.6 73.1195 24C73.1195 24.3833 73.0862 24.7167 73.0195 25H69.0195C68.9529 24.7167 68.9195 24.3833 68.9195 24C68.9195 23.6 68.9529 23.2667 69.0195 23H68.0195C67.9529 22.7167 67.9195 22.3833 67.9195 22C67.9195 21.6 67.9529 21.2667 68.0195 21H69.0195C68.9529 20.7167 68.9195 20.3833 68.9195 20C68.9195 19.6 68.9529 19.2667 69.0195 19H73.0195C72.9529 18.7167 72.9195 18.3833 72.9195 18C72.9195 17.6 72.9529 17.2667 73.0195 17H69.5195C69.4529 16.7167 69.4195 16.3833 69.4195 16C69.4195 15.6 69.4529 15.2667 69.5195 15H74.0195C74.0862 15.2667 74.1195 15.6 74.1195 16C74.1195 16.3833 74.0862 16.7167 74.0195 17H75.0195C75.0862 17.2667 75.1195 17.6 75.1195 18C75.1195 18.3833 75.0862 18.7167 75.0195 19C75.0862 19.2667 75.1195 19.6 75.1195 20C75.1195 20.3833 75.0862 20.7167 75.0195 21C75.0862 21.2667 75.1195 21.6 75.1195 22C75.1195 22.3833 75.0862 22.7167 75.0195 23H76.0195ZM86.0293 13C86.096 13.2667 86.1293 13.6 86.1293 14C86.1293 14.3833 86.096 14.7167 86.0293 15C86.096 15.2667 86.1293 15.6 86.1293 16C86.1293 16.3833 86.096 16.7167 86.0293 17C86.096 17.2667 86.1293 17.6 86.1293 18C86.1293 18.3833 86.096 18.7167 86.0293 19C86.096 19.2667 86.1293 19.6 86.1293 20C86.1293 20.3833 86.096 20.7167 86.0293 21C86.096 21.2667 86.1293 21.6 86.1293 22C86.1293 22.3833 86.096 22.7167 86.0293 23C86.096 23.2667 86.1293 23.6 86.1293 24C86.1293 24.3833 86.096 24.7167 86.0293 25H84.0293C83.9626 24.7167 83.9293 24.3833 83.9293 24C83.9293 23.6 83.9626 23.2667 84.0293 23H83.2793C83.2126 22.7167 83.1793 22.3833 83.1793 22C83.1793 21.6 83.2126 21.2667 83.2793 21H84.0293C83.9626 20.7167 83.9293 20.3833 83.9293 20C83.9293 19.6 83.9626 19.2667 84.0293 19H83.2793C83.2126 18.7167 83.1793 18.3833 83.1793 18C83.1793 17.6 83.2126 17.2667 83.2793 17H84.0293C83.9626 16.7167 83.9293 16.3833 83.9293 16C83.9293 15.6 83.9626 15.2667 84.0293 15C83.9626 14.7167 83.9293 14.3833 83.9293 14C83.9293 13.6 83.9626 13.2667 84.0293 13C83.9626 12.7167 83.9293 12.3833 83.9293 12C83.9293 11.6 83.9626 11.2667 84.0293 11H86.0293C86.096 11.2667 86.1293 11.6 86.1293 12C86.1293 12.3833 86.096 12.7167 86.0293 13ZM82.8793 16C82.8793 16.3833 82.846 16.7167 82.7793 17H80.2793C80.346 17.2667 80.3793 17.6 80.3793 18C80.3793 18.3833 80.346 18.7167 80.2793 19H79.5293C79.596 19.2667 79.6293 19.6 79.6293 20C79.6293 20.3833 79.596 20.7167 79.5293 21H80.2793C80.346 21.2667 80.3793 21.6 80.3793 22C80.3793 22.3833 80.346 22.7167 80.2793 23H82.7793C82.846 23.2667 82.8793 23.6 82.8793 24C82.8793 24.3833 82.846 24.7167 82.7793 25H80.0293C79.9626 24.7167 79.9293 24.3833 79.9293 24C79.9293 23.6 79.9626 23.2667 80.0293 23H78.7793C78.7126 22.7167 78.6793 22.3833 78.6793 22C78.6793 21.6 78.7126 21.2667 78.7793 21H78.0293C77.9626 20.7167 77.9293 20.3833 77.9293 20C77.9293 19.6 77.9626 19.2667 78.0293 19H78.7793C78.7126 18.7167 78.6793 18.3833 78.6793 18C78.6793 17.6 78.7126 17.2667 78.7793 17H80.0293C79.9626 16.7167 79.9293 16.3833 79.9293 16C79.9293 15.6 79.9626 15.2667 80.0293 15H82.7793C82.846 15.2667 82.8793 15.6 82.8793 16ZM96.1391 18C96.1391 18.3833 96.1057 18.7167 96.0391 19C96.1057 19.2667 96.1391 19.6 96.1391 20C96.1391 20.3833 96.1057 20.7167 96.0391 21H90.7891C90.8557 21.2667 90.8891 21.6 90.8891 22C90.8891 22.3833 90.8557 22.7167 90.7891 23H95.0391C95.1057 23.2667 95.1391 23.6 95.1391 24C95.1391 24.3833 95.1057 24.7167 95.0391 25H90.0391C89.9724 24.7167 89.9391 24.3833 89.9391 24C89.9391 23.6 89.9724 23.2667 90.0391 23H88.7891C88.7224 22.7167 88.6891 22.3833 88.6891 22C88.6891 21.6 88.7224 21.2667 88.7891 21H88.0391C87.9724 20.7167 87.9391 20.3833 87.9391 20C87.9391 19.6 87.9724 19.2667 88.0391 19H88.7891C88.7224 18.7167 88.6891 18.3833 88.6891 18C88.6891 17.6 88.7224 17.2667 88.7891 17H90.0391C89.9724 16.7167 89.9391 16.3833 89.9391 16C89.9391 15.6 89.9724 15.2667 90.0391 15H95.0391C95.1057 15.2667 95.1391 15.6 95.1391 16C95.1391 16.3833 95.1057 16.7167 95.0391 17H96.0391C96.1057 17.2667 96.1391 17.6 96.1391 18ZM94.0391 19C93.9724 18.7167 93.9391 18.3833 93.9391 18C93.9391 17.6 93.9724 17.2667 94.0391 17H90.7891C90.8557 17.2667 90.8891 17.6 90.8891 18C90.8891 18.3833 90.8557 18.7167 90.7891 19H94.0391ZM106.049 17C106.115 17.2667 106.149 17.6 106.149 18C106.149 18.3833 106.115 18.7167 106.049 19H104.049C103.982 18.7167 103.949 18.3833 103.949 18C103.949 17.6 103.982 17.2667 104.049 17H102.299C102.365 17.2667 102.399 17.6 102.399 18C102.399 18.3833 102.365 18.7167 102.299 19H101.549C101.615 19.2667 101.649 19.6 101.649 20C101.649 20.3833 101.615 20.7167 101.549 21C101.615 21.2667 101.649 21.6 101.649 22C101.649 22.3833 101.615 22.7167 101.549 23H103.049C103.115 23.2667 103.149 23.6 103.149 24C103.149 24.3833 103.115 24.7167 103.049 25H98.0488C97.9822 24.7167 97.9488 24.3833 97.9488 24C97.9488 23.6 97.9822 23.2667 98.0488 23H99.5488C99.4822 22.7167 99.4488 22.3833 99.4488 22C99.4488 21.6 99.4822 21.2667 99.5488 21C99.4822 20.7167 99.4488 20.3833 99.4488 20C99.4488 19.6 99.4822 19.2667 99.5488 19C99.4822 18.7167 99.4488 18.3833 99.4488 18C99.4488 17.6 99.4822 17.2667 99.5488 17H98.0488C97.9822 16.7167 97.9488 16.3833 97.9488 16C97.9488 15.6 97.9822 15.2667 98.0488 15H100.549C100.615 15.2667 100.649 15.6 100.649 16C100.649 16.3833 100.615 16.7167 100.549 17H101.549C101.482 16.7167 101.449 16.3833 101.449 16C101.449 15.6 101.482 15.2667 101.549 15H105.299C105.365 15.2667 105.399 15.6 105.399 16C105.399 16.3833 105.365 16.7167 105.299 17H106.049ZM110.059 21C110.125 21.2667 110.159 21.6 110.159 22C110.159 22.3833 110.125 22.7167 110.059 23H109.059C109.125 23.2667 109.159 23.6 109.159 24C109.159 24.3833 109.125 24.7167 109.059 25H108.059C107.992 24.7167 107.959 24.3833 107.959 24C107.959 23.6 107.992 23.2667 108.059 23C107.992 22.7167 107.959 22.3833 107.959 22C107.959 21.6 107.992 21.2667 108.059 21C107.992 20.7167 107.959 20.3833 107.959 20C107.959 19.6 107.992 19.2667 108.059 19C107.992 18.7167 107.959 18.3833 107.959 18C107.959 17.6 107.992 17.2667 108.059 17C107.992 16.7167 107.959 16.3833 107.959 16C107.959 15.6 107.992 15.2667 108.059 15C107.992 14.7167 107.959 14.3833 107.959 14C107.959 13.6 107.992 13.2667 108.059 13C107.992 12.7167 107.959 12.3833 107.959 12C107.959 11.6 107.992 11.2667 108.059 11H110.059C110.125 11.2667 110.159 11.6 110.159 12C110.159 12.3833 110.125 12.7167 110.059 13C110.125 13.2667 110.159 13.6 110.159 14C110.159 14.3833 110.125 14.7167 110.059 15C110.125 15.2667 110.159 15.6 110.159 16C110.159 16.3833 110.125 16.7167 110.059 17H111.059C111.125 17.2667 111.159 17.6 111.159 18C111.159 18.3833 111.125 18.7167 111.059 19H110.059C110.125 19.2667 110.159 19.6 110.159 20C110.159 20.3833 110.125 20.7167 110.059 21ZM116.159 20C116.159 20.3833 116.125 20.7167 116.059 21H115.059C115.125 21.2667 115.159 21.6 115.159 22C115.159 22.3833 115.125 22.7167 115.059 23H113.059C112.992 22.7167 112.959 22.3833 112.959 22C112.959 21.6 112.992 21.2667 113.059 21H114.059C113.992 20.7167 113.959 20.3833 113.959 20C113.959 19.6 113.992 19.2667 114.059 19H113.059C112.992 18.7167 112.959 18.3833 112.959 18C112.959 17.6 112.992 17.2667 113.059 17H111.059C110.992 16.7167 110.959 16.3833 110.959 16C110.959 15.6 110.992 15.2667 111.059 15H114.059C114.125 15.2667 114.159 15.6 114.159 16C114.159 16.3833 114.125 16.7167 114.059 17H115.059C115.125 17.2667 115.159 17.6 115.159 18C115.159 18.3833 115.125 18.7167 115.059 19H116.059C116.125 19.2667 116.159 19.6 116.159 20ZM109.959 24C109.959 23.6 109.992 23.2667 110.059 23H113.059C113.125 23.2667 113.159 23.6 113.159 24C113.159 24.3833 113.125 24.7167 113.059 25H110.059C109.992 24.7167 109.959 24.3833 109.959 24ZM126.168 20C126.168 20.3833 126.135 20.7167 126.068 21H125.318C125.385 21.2667 125.418 21.6 125.418 22C125.418 22.3833 125.385 22.7167 125.318 23H124.068C124.135 23.2667 124.168 23.6 124.168 24C124.168 24.3833 124.135 24.7167 124.068 25H120.068C120.002 24.7167 119.968 24.3833 119.968 24C119.968 23.6 120.002 23.2667 120.068 23H118.818C118.752 22.7167 118.718 22.3833 118.718 22C118.718 21.6 118.752 21.2667 118.818 21H118.068C118.002 20.7167 117.968 20.3833 117.968 20C117.968 19.6 118.002 19.2667 118.068 19H118.818C118.752 18.7167 118.718 18.3833 118.718 18C118.718 17.6 118.752 17.2667 118.818 17H120.068C120.002 16.7167 119.968 16.3833 119.968 16C119.968 15.6 120.002 15.2667 120.068 15H124.068C124.135 15.2667 124.168 15.6 124.168 16C124.168 16.3833 124.135 16.7167 124.068 17H125.318C125.385 17.2667 125.418 17.6 125.418 18C125.418 18.3833 125.385 18.7167 125.318 19H126.068C126.135 19.2667 126.168 19.6 126.168 20ZM124.068 21C124.002 20.7167 123.968 20.3833 123.968 20C123.968 19.6 124.002 19.2667 124.068 19H123.318C123.252 18.7167 123.218 18.3833 123.218 18C123.218 17.6 123.252 17.2667 123.318 17H120.818C120.885 17.2667 120.918 17.6 120.918 18C120.918 18.3833 120.885 18.7167 120.818 19H120.068C120.135 19.2667 120.168 19.6 120.168 20C120.168 20.3833 120.135 20.7167 120.068 21H120.818C120.885 21.2667 120.918 21.6 120.918 22C120.918 22.3833 120.885 22.7167 120.818 23H123.318C123.252 22.7167 123.218 22.3833 123.218 22C123.218 21.6 123.252 21.2667 123.318 21H124.068ZM136.078 23C136.145 23.2667 136.178 23.6 136.178 24C136.178 24.3833 136.145 24.7167 136.078 25H134.078C134.011 24.7167 133.978 24.3833 133.978 24C133.978 23.6 134.011 23.2667 134.078 23H133.078C133.011 22.7167 132.978 22.3833 132.978 22C132.978 21.6 133.011 21.2667 133.078 21H130.078C130.145 21.2667 130.178 21.6 130.178 22C130.178 22.3833 130.145 22.7167 130.078 23H133.078C133.145 23.2667 133.178 23.6 133.178 24C133.178 24.3833 133.145 24.7167 133.078 25H129.078C129.011 24.7167 128.978 24.3833 128.978 24C128.978 23.6 129.011 23.2667 129.078 23H128.078C128.011 22.7167 127.978 22.3833 127.978 22C127.978 21.6 128.011 21.2667 128.078 21H129.078C129.011 20.7167 128.978 20.3833 128.978 20C128.978 19.6 129.011 19.2667 129.078 19H133.078C133.011 18.7167 132.978 18.3833 132.978 18C132.978 17.6 133.011 17.2667 133.078 17H129.578C129.511 16.7167 129.478 16.3833 129.478 16C129.478 15.6 129.511 15.2667 129.578 15H134.078C134.145 15.2667 134.178 15.6 134.178 16C134.178 16.3833 134.145 16.7167 134.078 17H135.078C135.145 17.2667 135.178 17.6 135.178 18C135.178 18.3833 135.145 18.7167 135.078 19C135.145 19.2667 135.178 19.6 135.178 20C135.178 20.3833 135.145 20.7167 135.078 21C135.145 21.2667 135.178 21.6 135.178 22C135.178 22.3833 135.145 22.7167 135.078 23H136.078ZM146.088 17C146.155 17.2667 146.188 17.6 146.188 18C146.188 18.3833 146.155 18.7167 146.088 19H144.088C144.021 18.7167 143.988 18.3833 143.988 18C143.988 17.6 144.021 17.2667 144.088 17H142.338C142.405 17.2667 142.438 17.6 142.438 18C142.438 18.3833 142.405 18.7167 142.338 19H141.588C141.655 19.2667 141.688 19.6 141.688 20C141.688 20.3833 141.655 20.7167 141.588 21C141.655 21.2667 141.688 21.6 141.688 22C141.688 22.3833 141.655 22.7167 141.588 23H143.088C143.155 23.2667 143.188 23.6 143.188 24C143.188 24.3833 143.155 24.7167 143.088 25H138.088C138.021 24.7167 137.988 24.3833 137.988 24C137.988 23.6 138.021 23.2667 138.088 23H139.588C139.521 22.7167 139.488 22.3833 139.488 22C139.488 21.6 139.521 21.2667 139.588 21C139.521 20.7167 139.488 20.3833 139.488 20C139.488 19.6 139.521 19.2667 139.588 19C139.521 18.7167 139.488 18.3833 139.488 18C139.488 17.6 139.521 17.2667 139.588 17H138.088C138.021 16.7167 137.988 16.3833 137.988 16C137.988 15.6 138.021 15.2667 138.088 15H140.588C140.655 15.2667 140.688 15.6 140.688 16C140.688 16.3833 140.655 16.7167 140.588 17H141.588C141.521 16.7167 141.488 16.3833 141.488 16C141.488 15.6 141.521 15.2667 141.588 15H145.338C145.405 15.2667 145.438 15.6 145.438 16C145.438 16.3833 145.405 16.7167 145.338 17H146.088ZM156.098 13C156.164 13.2667 156.198 13.6 156.198 14C156.198 14.3833 156.164 14.7167 156.098 15C156.164 15.2667 156.198 15.6 156.198 16C156.198 16.3833 156.164 16.7167 156.098 17C156.164 17.2667 156.198 17.6 156.198 18C156.198 18.3833 156.164 18.7167 156.098 19C156.164 19.2667 156.198 19.6 156.198 20C156.198 20.3833 156.164 20.7167 156.098 21C156.164 21.2667 156.198 21.6 156.198 22C156.198 22.3833 156.164 22.7167 156.098 23C156.164 23.2667 156.198 23.6 156.198 24C156.198 24.3833 156.164 24.7167 156.098 25H154.098C154.031 24.7167 153.998 24.3833 153.998 24C153.998 23.6 154.031 23.2667 154.098 23H153.348C153.281 22.7167 153.248 22.3833 153.248 22C153.248 21.6 153.281 21.2667 153.348 21H154.098C154.031 20.7167 153.998 20.3833 153.998 20C153.998 19.6 154.031 19.2667 154.098 19H153.348C153.281 18.7167 153.248 18.3833 153.248 18C153.248 17.6 153.281 17.2667 153.348 17H154.098C154.031 16.7167 153.998 16.3833 153.998 16C153.998 15.6 154.031 15.2667 154.098 15C154.031 14.7167 153.998 14.3833 153.998 14C153.998 13.6 154.031 13.2667 154.098 13C154.031 12.7167 153.998 12.3833 153.998 12C153.998 11.6 154.031 11.2667 154.098 11H156.098C156.164 11.2667 156.198 11.6 156.198 12C156.198 12.3833 156.164 12.7167 156.098 13ZM152.948 16C152.948 16.3833 152.914 16.7167 152.848 17H150.348C150.414 17.2667 150.448 17.6 150.448 18C150.448 18.3833 150.414 18.7167 150.348 19H149.598C149.664 19.2667 149.698 19.6 149.698 20C149.698 20.3833 149.664 20.7167 149.598 21H150.348C150.414 21.2667 150.448 21.6 150.448 22C150.448 22.3833 150.414 22.7167 150.348 23H152.848C152.914 23.2667 152.948 23.6 152.948 24C152.948 24.3833 152.914 24.7167 152.848 25H150.098C150.031 24.7167 149.998 24.3833 149.998 24C149.998 23.6 150.031 23.2667 150.098 23H148.848C148.781 22.7167 148.748 22.3833 148.748 22C148.748 21.6 148.781 21.2667 148.848 21H148.098C148.031 20.7167 147.998 20.3833 147.998 20C147.998 19.6 148.031 19.2667 148.098 19H148.848C148.781 18.7167 148.748 18.3833 148.748 18C148.748 17.6 148.781 17.2667 148.848 17H150.098C150.031 16.7167 149.998 16.3833 149.998 16C149.998 15.6 150.031 15.2667 150.098 15H152.848C152.914 15.2667 152.948 15.6 152.948 16Z" fill="url(#paint10_linear_4_67)"/>
<defs>
<linearGradient id="paint0_linear_4_67" x1="9.25" y1="15.75" x2="0.999999" y2="24" gradientUnits="userSpaceOnUse">
<stop stop-color="#7CCFF5"/>
<stop offset="0.9999" stop-color="#00AEFF"/>
<stop offset="1" stop-color="#ABE4FF"/>
</linearGradient>
<linearGradient id="paint1_linear_4_67" x1="7" y1="211.5" x2="1.5" y2="220" gradientUnits="userSpaceOnUse">
<stop stop-color="#7CCFF5"/>
<stop offset="0.9999" stop-color="#00AEFF"/>
<stop offset="1" stop-color="#ABE4FF"/>
</linearGradient>
<linearGradient id="paint2_linear_4_67" x1="9.25" y1="15.75" x2="0.999999" y2="24" gradientUnits="userSpaceOnUse">
<stop stop-color="#7CCFF5"/>
<stop offset="0.9999" stop-color="#00AEFF"/>
<stop offset="1" stop-color="#ABE4FF"/>
</linearGradient>
<linearGradient id="paint3_linear_4_67" x1="48.25" y1="2.75" x2="40" y2="11" gradientUnits="userSpaceOnUse">
<stop stop-color="#7CCFF5"/>
<stop offset="0.9999" stop-color="#00AEFF"/>
<stop offset="1" stop-color="#ABE4FF"/>
</linearGradient>
<linearGradient id="paint4_linear_4_67" x1="7" y1="211.5" x2="1.5" y2="220" gradientUnits="userSpaceOnUse">
<stop stop-color="#7CCFF5"/>
<stop offset="0.9999" stop-color="#00AEFF"/>
<stop offset="1" stop-color="#ABE4FF"/>
</linearGradient>
<linearGradient id="paint5_linear_4_67" x1="46" y1="28.5" x2="40.5" y2="37" gradientUnits="userSpaceOnUse">
<stop stop-color="#7CCFF5"/>
<stop offset="0.9999" stop-color="#00AEFF"/>
<stop offset="1" stop-color="#ABE4FF"/>
</linearGradient>
<linearGradient id="paint6_linear_4_67" x1="156.75" y1="1.75" x2="165" y2="10" gradientUnits="userSpaceOnUse">
<stop stop-color="#7CCFF5"/>
<stop offset="0.9999" stop-color="#00AEFF"/>
<stop offset="1" stop-color="#ABE4FF"/>
</linearGradient>
<linearGradient id="paint7_linear_4_67" x1="159" y1="28.5" x2="164.5" y2="37" gradientUnits="userSpaceOnUse">
<stop stop-color="#7CCFF5"/>
<stop offset="0.9999" stop-color="#00AEFF"/>
<stop offset="1" stop-color="#ABE4FF"/>
</linearGradient>
<linearGradient id="paint8_linear_4_67" x1="196.75" y1="15.75" x2="205" y2="24" gradientUnits="userSpaceOnUse">
<stop stop-color="#7CCFF5"/>
<stop offset="0.9999" stop-color="#00AEFF"/>
<stop offset="1" stop-color="#ABE4FF"/>
</linearGradient>
<linearGradient id="paint9_linear_4_67" x1="199" y1="211.5" x2="204.5" y2="220" gradientUnits="userSpaceOnUse">
<stop stop-color="#7CCFF5"/>
<stop offset="0.9999" stop-color="#00AEFF"/>
<stop offset="1" stop-color="#ABE4FF"/>
</linearGradient>
<linearGradient id="paint10_linear_4_67" x1="102.5" y1="5" x2="102.5" y2="30" gradientUnits="userSpaceOnUse">
<stop stop-color="white"/>
<stop offset="1" stop-color="white" stop-opacity="0.41"/>
</linearGradient>
</defs>
</svg>
