<svg width="206" height="219" viewBox="0 0 206 219" fill="none" xmlns="http://www.w3.org/2000/svg">
<path d="M6 23H2V209H6V23Z" fill="#34A2D5" stroke="#12374B" stroke-width="0.5"/>
<path d="M6 23H2V209H6V23Z" fill="#8ED534" stroke="#3C5B13" stroke-width="0.5"/>
<path d="M156 34L156 31L49 31L49 34L156 34Z" fill="#8ED534" stroke="#3C5B13" stroke-width="0.5"/>
<path d="M41 26L44 26L44 10L41 10L41 26Z" fill="#8ED534" stroke="#3C5B13" stroke-width="0.5"/>
<path d="M10 15L10 19L41 19L41 15L10 15Z" fill="#8ED534" stroke="#3C5B13" stroke-width="0.5"/>
<path d="M164 15L164 19L196 19L196 15L164 15Z" fill="#8ED534" stroke="#3C5B13" stroke-width="0.5"/>
<path d="M161 26L164 26L164 10L161 10L161 26Z" fill="#8ED534" stroke="#3C5B13" stroke-width="0.5"/>
<path d="M156 5L156 2L49 2L49 5L156 5Z" fill="#8ED534" stroke="#3C5B13" stroke-width="0.5"/>
<path d="M200 23H204V209H200V23Z" fill="#8ED534" stroke="#3C5B13" stroke-width="0.5"/>
<path d="M196 217L196 213L10 213L10 217L196 217Z" fill="#8ED534" stroke="#3C5B13" stroke-width="0.5"/>
<path d="M71 12C71.0667 12.2667 71.1 12.6 71.1 13C71.1 13.3833 71.0667 13.7167 71 14C71.0667 14.2667 71.1 14.6 71.1 15C71.1 15.3833 71.0667 15.7167 71 16H70.25C70.3167 16.2667 70.35 16.6 70.35 17C70.35 17.3833 70.3167 17.7167 70.25 18H69.5C69.5667 18.2667 69.6 18.6 69.6 19C69.6 19.3833 69.5667 19.7167 69.5 20H69C69.0667 20.2667 69.1 20.6 69.1 21C69.1 21.3833 69.0667 21.7167 69 22H68C68.0667 22.2667 68.1 22.6 68.1 23C68.1 23.3833 68.0667 23.7167 68 24H66C65.9333 23.7167 65.9 23.3833 65.9 23C65.9 22.6 65.9333 22.2667 66 22H65C64.9333 21.7167 64.9 21.3833 64.9 21C64.9 20.6 64.9333 20.2667 65 20H64.5C64.4333 19.7167 64.4 19.3833 64.4 19C64.4 18.6 64.4333 18.2667 64.5 18H63.75C63.6833 17.7167 63.65 17.3833 63.65 17C63.65 16.6 63.6833 16.2667 63.75 16H63C62.9333 15.7167 62.9 15.3833 62.9 15C62.9 14.6 62.9333 14.2667 63 14C62.9333 13.7167 62.9 13.3833 62.9 13C62.9 12.6 62.9333 12.2667 63 12C62.9333 11.7167 62.9 11.3833 62.9 11C62.9 10.6 62.9333 10.2667 63 10H65C65.0667 10.2667 65.1 10.6 65.1 11C65.1 11.3833 65.0667 11.7167 65 12C65.0667 12.2667 65.1 12.6 65.1 13C65.1 13.3833 65.0667 13.7167 65 14C65.0667 14.2667 65.1 14.6 65.1 15C65.1 15.3833 65.0667 15.7167 65 16H65.75C65.8167 16.2667 65.85 16.6 65.85 17C65.85 17.3833 65.8167 17.7167 65.75 18H66.5C66.5667 18.2667 66.6 18.6 66.6 19C66.6 19.3833 66.5667 19.7167 66.5 20H67.5C67.4333 19.7167 67.4 19.3833 67.4 19C67.4 18.6 67.4333 18.2667 67.5 18H68.25C68.1833 17.7167 68.15 17.3833 68.15 17C68.15 16.6 68.1833 16.2667 68.25 16H69C68.9333 15.7167 68.9 15.3833 68.9 15C68.9 14.6 68.9333 14.2667 69 14C68.9333 13.7167 68.9 13.3833 68.9 13C68.9 12.6 68.9333 12.2667 69 12C68.9333 11.7167 68.9 11.3833 68.9 11C68.9 10.6 68.9333 10.2667 69 10H71C71.0667 10.2667 71.1 10.6 71.1 11C71.1 11.3833 71.0667 11.7167 71 12ZM81.1098 19C81.1098 19.3833 81.0764 19.7167 81.0098 20H80.2598C80.3264 20.2667 80.3598 20.6 80.3598 21C80.3598 21.3833 80.3264 21.7167 80.2598 22H79.0098C79.0764 22.2667 79.1098 22.6 79.1098 23C79.1098 23.3833 79.0764 23.7167 79.0098 24H75.0098C74.9431 23.7167 74.9098 23.3833 74.9098 23C74.9098 22.6 74.9431 22.2667 75.0098 22H73.7598C73.6931 21.7167 73.6598 21.3833 73.6598 21C73.6598 20.6 73.6931 20.2667 73.7598 20H73.0098C72.9431 19.7167 72.9098 19.3833 72.9098 19C72.9098 18.6 72.9431 18.2667 73.0098 18H73.7598C73.6931 17.7167 73.6598 17.3833 73.6598 17C73.6598 16.6 73.6931 16.2667 73.7598 16H75.0098C74.9431 15.7167 74.9098 15.3833 74.9098 15C74.9098 14.6 74.9431 14.2667 75.0098 14H79.0098C79.0764 14.2667 79.1098 14.6 79.1098 15C79.1098 15.3833 79.0764 15.7167 79.0098 16H80.2598C80.3264 16.2667 80.3598 16.6 80.3598 17C80.3598 17.3833 80.3264 17.7167 80.2598 18H81.0098C81.0764 18.2667 81.1098 18.6 81.1098 19ZM79.0098 20C78.9431 19.7167 78.9098 19.3833 78.9098 19C78.9098 18.6 78.9431 18.2667 79.0098 18H78.2598C78.1931 17.7167 78.1598 17.3833 78.1598 17C78.1598 16.6 78.1931 16.2667 78.2598 16H75.7598C75.8264 16.2667 75.8598 16.6 75.8598 17C75.8598 17.3833 75.8264 17.7167 75.7598 18H75.0098C75.0764 18.2667 75.1098 18.6 75.1098 19C75.1098 19.3833 75.0764 19.7167 75.0098 20H75.7598C75.8264 20.2667 75.8598 20.6 75.8598 21C75.8598 21.3833 75.8264 21.7167 75.7598 22H78.2598C78.1931 21.7167 78.1598 21.3833 78.1598 21C78.1598 20.6 78.1931 20.2667 78.2598 20H79.0098ZM90.0195 22C90.0862 22.2667 90.1195 22.6 90.1195 23C90.1195 23.3833 90.0862 23.7167 90.0195 24H86.0195C85.9529 23.7167 85.9195 23.3833 85.9195 23C85.9195 22.6 85.9529 22.2667 86.0195 22H85.0195C84.9529 21.7167 84.9195 21.3833 84.9195 21C84.9195 20.6 84.9529 20.2667 85.0195 20C84.9529 19.7167 84.9195 19.3833 84.9195 19C84.9195 18.6 84.9529 18.2667 85.0195 18C84.9529 17.7167 84.9195 17.3833 84.9195 17C84.9195 16.6 84.9529 16.2667 85.0195 16H83.0195C82.9529 15.7167 82.9195 15.3833 82.9195 15C82.9195 14.6 82.9529 14.2667 83.0195 14H85.0195C84.9529 13.7167 84.9195 13.3833 84.9195 13C84.9195 12.6 84.9529 12.2667 85.0195 12C84.9529 11.7167 84.9195 11.3833 84.9195 11C84.9195 10.6 84.9529 10.2667 85.0195 10H87.0195C87.0862 10.2667 87.1195 10.6 87.1195 11C87.1195 11.3833 87.0862 11.7167 87.0195 12C87.0862 12.2667 87.1195 12.6 87.1195 13C87.1195 13.3833 87.0862 13.7167 87.0195 14H90.0195C90.0862 14.2667 90.1195 14.6 90.1195 15C90.1195 15.3833 90.0862 15.7167 90.0195 16H87.0195C87.0862 16.2667 87.1195 16.6 87.1195 17C87.1195 17.3833 87.0862 17.7167 87.0195 18C87.0862 18.2667 87.1195 18.6 87.1195 19C87.1195 19.3833 87.0862 19.7167 87.0195 20C87.0862 20.2667 87.1195 20.6 87.1195 21C87.1195 21.3833 87.0862 21.7167 87.0195 22H90.0195ZM101.129 17C101.129 17.3833 101.096 17.7167 101.029 18C101.096 18.2667 101.129 18.6 101.129 19C101.129 19.3833 101.096 19.7167 101.029 20H95.7793C95.846 20.2667 95.8793 20.6 95.8793 21C95.8793 21.3833 95.846 21.7167 95.7793 22H100.029C100.096 22.2667 100.129 22.6 100.129 23C100.129 23.3833 100.096 23.7167 100.029 24H95.0293C94.9626 23.7167 94.9293 23.3833 94.9293 23C94.9293 22.6 94.9626 22.2667 95.0293 22H93.7793C93.7126 21.7167 93.6793 21.3833 93.6793 21C93.6793 20.6 93.7126 20.2667 93.7793 20H93.0293C92.9626 19.7167 92.9293 19.3833 92.9293 19C92.9293 18.6 92.9626 18.2667 93.0293 18H93.7793C93.7126 17.7167 93.6793 17.3833 93.6793 17C93.6793 16.6 93.7126 16.2667 93.7793 16H95.0293C94.9626 15.7167 94.9293 15.3833 94.9293 15C94.9293 14.6 94.9626 14.2667 95.0293 14H100.029C100.096 14.2667 100.129 14.6 100.129 15C100.129 15.3833 100.096 15.7167 100.029 16H101.029C101.096 16.2667 101.129 16.6 101.129 17ZM99.0293 18C98.9626 17.7167 98.9293 17.3833 98.9293 17C98.9293 16.6 98.9626 16.2667 99.0293 16H95.7793C95.846 16.2667 95.8793 16.6 95.8793 17C95.8793 17.3833 95.846 17.7167 95.7793 18H99.0293ZM121.049 12C121.115 12.2667 121.149 12.6 121.149 13C121.149 13.3833 121.115 13.7167 121.049 14C121.115 14.2667 121.149 14.6 121.149 15C121.149 15.3833 121.115 15.7167 121.049 16C121.115 16.2667 121.149 16.6 121.149 17C121.149 17.3833 121.115 17.7167 121.049 18C121.115 18.2667 121.149 18.6 121.149 19C121.149 19.3833 121.115 19.7167 121.049 20C121.115 20.2667 121.149 20.6 121.149 21C121.149 21.3833 121.115 21.7167 121.049 22C121.115 22.2667 121.149 22.6 121.149 23C121.149 23.3833 121.115 23.7167 121.049 24H119.049C118.982 23.7167 118.949 23.3833 118.949 23C118.949 22.6 118.982 22.2667 119.049 22H117.799C117.732 21.7167 117.699 21.3833 117.699 21C117.699 20.6 117.732 20.2667 117.799 20H117.049C116.982 19.7167 116.949 19.3833 116.949 19C116.949 18.6 116.982 18.2667 117.049 18H116.049C115.982 17.7167 115.949 17.3833 115.949 17C115.949 16.6 115.982 16.2667 116.049 16H115.049C115.115 16.2667 115.149 16.6 115.149 17C115.149 17.3833 115.115 17.7167 115.049 18C115.115 18.2667 115.149 18.6 115.149 19C115.149 19.3833 115.115 19.7167 115.049 20C115.115 20.2667 115.149 20.6 115.149 21C115.149 21.3833 115.115 21.7167 115.049 22C115.115 22.2667 115.149 22.6 115.149 23C115.149 23.3833 115.115 23.7167 115.049 24H113.049C112.982 23.7167 112.949 23.3833 112.949 23C112.949 22.6 112.982 22.2667 113.049 22C112.982 21.7167 112.949 21.3833 112.949 21C112.949 20.6 112.982 20.2667 113.049 20C112.982 19.7167 112.949 19.3833 112.949 19C112.949 18.6 112.982 18.2667 113.049 18C112.982 17.7167 112.949 17.3833 112.949 17C112.949 16.6 112.982 16.2667 113.049 16C112.982 15.7167 112.949 15.3833 112.949 15C112.949 14.6 112.982 14.2667 113.049 14C112.982 13.7167 112.949 13.3833 112.949 13C112.949 12.6 112.982 12.2667 113.049 12C112.982 11.7167 112.949 11.3833 112.949 11C112.949 10.6 112.982 10.2667 113.049 10H115.549C115.615 10.2667 115.649 10.6 115.649 11C115.649 11.3833 115.615 11.7167 115.549 12H116.299C116.365 12.2667 116.399 12.6 116.399 13C116.399 13.3833 116.365 13.7167 116.299 14H117.049C117.115 14.2667 117.149 14.6 117.149 15C117.149 15.3833 117.115 15.7167 117.049 16H118.049C118.115 16.2667 118.149 16.6 118.149 17C118.149 17.3833 118.115 17.7167 118.049 18H119.049C118.982 17.7167 118.949 17.3833 118.949 17C118.949 16.6 118.982 16.2667 119.049 16C118.982 15.7167 118.949 15.3833 118.949 15C118.949 14.6 118.982 14.2667 119.049 14C118.982 13.7167 118.949 13.3833 118.949 13C118.949 12.6 118.982 12.2667 119.049 12C118.982 11.7167 118.949 11.3833 118.949 11C118.949 10.6 118.982 10.2667 119.049 10H121.049C121.115 10.2667 121.149 10.6 121.149 11C121.149 11.3833 121.115 11.7167 121.049 12ZM131.159 19C131.159 19.3833 131.125 19.7167 131.059 20H130.309C130.375 20.2667 130.409 20.6 130.409 21C130.409 21.3833 130.375 21.7167 130.309 22H129.059C129.125 22.2667 129.159 22.6 129.159 23C129.159 23.3833 129.125 23.7167 129.059 24H125.059C124.992 23.7167 124.959 23.3833 124.959 23C124.959 22.6 124.992 22.2667 125.059 22H123.809C123.742 21.7167 123.709 21.3833 123.709 21C123.709 20.6 123.742 20.2667 123.809 20H123.059C122.992 19.7167 122.959 19.3833 122.959 19C122.959 18.6 122.992 18.2667 123.059 18H123.809C123.742 17.7167 123.709 17.3833 123.709 17C123.709 16.6 123.742 16.2667 123.809 16H125.059C124.992 15.7167 124.959 15.3833 124.959 15C124.959 14.6 124.992 14.2667 125.059 14H129.059C129.125 14.2667 129.159 14.6 129.159 15C129.159 15.3833 129.125 15.7167 129.059 16H130.309C130.375 16.2667 130.409 16.6 130.409 17C130.409 17.3833 130.375 17.7167 130.309 18H131.059C131.125 18.2667 131.159 18.6 131.159 19ZM129.059 20C128.992 19.7167 128.959 19.3833 128.959 19C128.959 18.6 128.992 18.2667 129.059 18H128.309C128.242 17.7167 128.209 17.3833 128.209 17C128.209 16.6 128.242 16.2667 128.309 16H125.809C125.875 16.2667 125.909 16.6 125.909 17C125.909 17.3833 125.875 17.7167 125.809 18H125.059C125.125 18.2667 125.159 18.6 125.159 19C125.159 19.3833 125.125 19.7167 125.059 20H125.809C125.875 20.2667 125.909 20.6 125.909 21C125.909 21.3833 125.875 21.7167 125.809 22H128.309C128.242 21.7167 128.209 21.3833 128.209 21C128.209 20.6 128.242 20.2667 128.309 20H129.059ZM141.168 15C141.168 15.3833 141.135 15.7167 141.068 16C141.135 16.2667 141.168 16.6 141.168 17C141.168 17.3833 141.135 17.7167 141.068 18H140.318C140.385 18.2667 140.418 18.6 140.418 19C140.418 19.3833 140.385 19.7167 140.318 20C140.385 20.2667 140.418 20.6 140.418 21C140.418 21.3833 140.385 21.7167 140.318 22H139.818C139.885 22.2667 139.918 22.6 139.918 23C139.918 23.3833 139.885 23.7167 139.818 24H138.318C138.252 23.7167 138.218 23.3833 138.218 23C138.218 22.6 138.252 22.2667 138.318 22H137.818C137.752 21.7167 137.718 21.3833 137.718 21C137.718 20.6 137.752 20.2667 137.818 20H136.318C136.385 20.2667 136.418 20.6 136.418 21C136.418 21.3833 136.385 21.7167 136.318 22H135.818C135.885 22.2667 135.918 22.6 135.918 23C135.918 23.3833 135.885 23.7167 135.818 24H134.318C134.252 23.7167 134.218 23.3833 134.218 23C134.218 22.6 134.252 22.2667 134.318 22H133.818C133.752 21.7167 133.718 21.3833 133.718 21C133.718 20.6 133.752 20.2667 133.818 20C133.752 19.7167 133.718 19.3833 133.718 19C133.718 18.6 133.752 18.2667 133.818 18H133.068C133.002 17.7167 132.968 17.3833 132.968 17C132.968 16.6 133.002 16.2667 133.068 16C133.002 15.7167 132.968 15.3833 132.968 15C132.968 14.6 133.002 14.2667 133.068 14H135.068C135.135 14.2667 135.168 14.6 135.168 15C135.168 15.3833 135.135 15.7167 135.068 16C135.135 16.2667 135.168 16.6 135.168 17C135.168 17.3833 135.135 17.7167 135.068 18C135.135 18.2667 135.168 18.6 135.168 19C135.168 19.3833 135.135 19.7167 135.068 20H135.818C135.752 19.7167 135.718 19.3833 135.718 19C135.718 18.6 135.752 18.2667 135.818 18H136.318C136.252 17.7167 136.218 17.3833 136.218 17C136.218 16.6 136.252 16.2667 136.318 16C136.252 15.7167 136.218 15.3833 136.218 15C136.218 14.6 136.252 14.2667 136.318 14H137.818C137.885 14.2667 137.918 14.6 137.918 15C137.918 15.3833 137.885 15.7167 137.818 16C137.885 16.2667 137.918 16.6 137.918 17C137.918 17.3833 137.885 17.7167 137.818 18H138.318C138.385 18.2667 138.418 18.6 138.418 19C138.418 19.3833 138.385 19.7167 138.318 20H139.068C139.002 19.7167 138.968 19.3833 138.968 19C138.968 18.6 139.002 18.2667 139.068 18C139.002 17.7167 138.968 17.3833 138.968 17C138.968 16.6 139.002 16.2667 139.068 16C139.002 15.7167 138.968 15.3833 138.968 15C138.968 14.6 139.002 14.2667 139.068 14H141.068C141.135 14.2667 141.168 14.6 141.168 15Z" fill="url(#paint0_linear_7_101)"/>
<path d="M1 23V14H10V20H7V23H1Z" fill="url(#paint1_linear_7_101)" stroke="#3C5B13" stroke-width="0.5"/>
<path d="M4 17V15.5H7V17H4Z" fill="#DFFDCC"/>
<path d="M4 18.5H2.5V21.5H4V18.5Z" fill="#96FF56"/>
<path d="M40 10V1H49V7H46V10H40Z" fill="url(#paint2_linear_7_101)" stroke="#3C5B13" stroke-width="0.5"/>
<path d="M43 4V2.5H46V4H43Z" fill="#DFFDCC"/>
<path d="M43 5.5H41.5V8.5H43V5.5Z" fill="#96FF56"/>
<path d="M165 10V1H156V7H159V10H165Z" fill="url(#paint3_linear_7_101)" stroke="#3C5B13" stroke-width="0.5"/>
<path d="M162 4V2.5H159V4H162Z" fill="#DFFDCC"/>
<path d="M162 5.5H163.5V8.5H162V5.5Z" fill="#96FF56"/>
<path d="M205 23V14H196V20H199V23H205Z" fill="url(#paint4_linear_7_101)" stroke="#3C5B13" stroke-width="0.5"/>
<path d="M202 17V15.5H199V17H202Z" fill="#DFFDCC"/>
<path d="M202 18.5H203.5V21.5H202V18.5Z" fill="#96FF56"/>
<path d="M10 218L1 218L1 209L7 209L7 212L10 212L10 218Z" fill="url(#paint5_linear_7_101)" stroke="#3C5B13" stroke-width="0.5"/>
<path d="M4 215L2.5 215L2.5 212L4 212L4 215Z" fill="#DFFDCC"/>
<path d="M5.5 215L5.5 216.5L8.5 216.5L8.5 215L5.5 215Z" fill="#96FF56"/>
<path d="M49 35L40 35L40 26L46 26L46 29L49 29L49 35Z" fill="url(#paint6_linear_7_101)" stroke="#3C5B13" stroke-width="0.5"/>
<path d="M43 32.0001L41.5 32.0001L41.5 29.0001L43 29.0001L43 32.0001Z" fill="#DFFDCC"/>
<path d="M44.5 31.9999L44.5 33.4999L47.5 33.4999L47.5 31.9999L44.5 31.9999Z" fill="#96FF56"/>
<path d="M156 35L165 35L165 26L159 26L159 29L156 29L156 35Z" fill="url(#paint7_linear_7_101)" stroke="#3C5B13" stroke-width="0.5"/>
<path d="M162 32.0001L163.5 32.0001L163.5 29.0001L162 29.0001L162 32.0001Z" fill="#DFFDCC"/>
<path d="M160.5 31.9999L160.5 33.4999L157.5 33.4999L157.5 31.9999L160.5 31.9999Z" fill="#96FF56"/>
<path d="M196 218L205 218L205 209L199 209L199 212L196 212L196 218Z" fill="url(#paint8_linear_7_101)" stroke="#3C5B13" stroke-width="0.5"/>
<path d="M202 215L203.5 215L203.5 212L202 212L202 215Z" fill="#DFFDCC"/>
<path d="M200.5 215L200.5 216.5L197.5 216.5L197.5 215L200.5 215Z" fill="#96FF56"/>
<defs>
<linearGradient id="paint0_linear_7_101" x1="102.5" y1="4" x2="102.5" y2="29" gradientUnits="userSpaceOnUse">
<stop stop-color="white"/>
<stop offset="1" stop-color="white" stop-opacity="0.41"/>
</linearGradient>
<linearGradient id="paint1_linear_7_101" x1="1.5" y1="22.5" x2="9" y2="14.5" gradientUnits="userSpaceOnUse">
<stop stop-color="#87FF85"/>
<stop offset="1" stop-color="#F5FF85" stop-opacity="0.53"/>
</linearGradient>
<linearGradient id="paint2_linear_7_101" x1="40.5" y1="9.5" x2="48" y2="1.5" gradientUnits="userSpaceOnUse">
<stop stop-color="#87FF85"/>
<stop offset="1" stop-color="#F5FF85" stop-opacity="0.53"/>
</linearGradient>
<linearGradient id="paint3_linear_7_101" x1="164.5" y1="9.5" x2="157" y2="1.5" gradientUnits="userSpaceOnUse">
<stop stop-color="#87FF85"/>
<stop offset="1" stop-color="#F5FF85" stop-opacity="0.53"/>
</linearGradient>
<linearGradient id="paint4_linear_7_101" x1="204.5" y1="22.5" x2="197" y2="14.5" gradientUnits="userSpaceOnUse">
<stop stop-color="#87FF85"/>
<stop offset="1" stop-color="#F5FF85" stop-opacity="0.53"/>
</linearGradient>
<linearGradient id="paint5_linear_7_101" x1="4" y1="217.5" x2="8.5" y2="210" gradientUnits="userSpaceOnUse">
<stop stop-color="#87FF85"/>
<stop offset="1" stop-color="#F5FF85" stop-opacity="0.53"/>
</linearGradient>
<linearGradient id="paint6_linear_7_101" x1="43" y1="34.5" x2="47.5" y2="27" gradientUnits="userSpaceOnUse">
<stop stop-color="#87FF85"/>
<stop offset="1" stop-color="#F5FF85" stop-opacity="0.53"/>
</linearGradient>
<linearGradient id="paint7_linear_7_101" x1="162" y1="34.5" x2="157.5" y2="27" gradientUnits="userSpaceOnUse">
<stop stop-color="#87FF85"/>
<stop offset="1" stop-color="#F5FF85" stop-opacity="0.53"/>
</linearGradient>
<linearGradient id="paint8_linear_7_101" x1="202" y1="217.5" x2="197.5" y2="210" gradientUnits="userSpaceOnUse">
<stop stop-color="#87FF85"/>
<stop offset="1" stop-color="#F5FF85" stop-opacity="0.53"/>
</linearGradient>
</defs>
</svg>
